<?xml version="1.0" encoding="UTF-8"?> <svg xmlns="http://www.w3.org/2000/svg" id="Layer_1" data-name="Layer 1" width="204.71" height="101.25" viewBox="0 0 204.71 101.25"><defs><style>.cls-1{fill:#fff;}.cls-2{fill:#ec008c;stroke:#ec008c;stroke-miterlimit:10;stroke-width:1.25px;}.cls-3{fill:#72be44;}.cls-3,.cls-5,.cls-7{fill-rule:evenodd;}.cls-4{fill:#0071bb;}.cls-5,.cls-6{fill:#eb008b;}.cls-7{fill:#519446;}</style></defs><title>A2B-Indian-Restaurant-Herndon-VA-Logo-Mobile</title><path class="cls-1" d="M102.35,100.63a195.94,195.94,0,0,1-39.48-3.9A136.88,136.88,0,0,1,30.58,86.09c-9.36-4.57-16.72-9.91-21.86-15.85C3.35,64,.63,57.44.63,50.62S3.35,37.21,8.72,31c5.14-5.94,12.5-11.28,21.86-15.85A136.88,136.88,0,0,1,62.87,4.52,196,196,0,0,1,102.35.63a196,196,0,0,1,39.49,3.89,136.88,136.88,0,0,1,32.29,10.64C183.49,19.73,190.85,25.07,196,31c5.37,6.2,8.09,12.8,8.09,19.61S201.36,64,196,70.24c-5.14,5.94-12.5,11.28-21.86,15.85a136.88,136.88,0,0,1-32.29,10.64A196,196,0,0,1,102.35,100.63Z"></path><path class="cls-2" d="M102.35,100.63a195.94,195.94,0,0,1-39.48-3.9A136.88,136.88,0,0,1,30.58,86.09c-9.36-4.57-16.72-9.91-21.86-15.85C3.35,64,.63,57.44.63,50.62S3.35,37.21,8.72,31c5.14-5.94,12.5-11.28,21.86-15.85A136.88,136.88,0,0,1,62.87,4.52,196,196,0,0,1,102.35.63a196,196,0,0,1,39.49,3.89,136.88,136.88,0,0,1,32.29,10.64C183.49,19.73,190.85,25.07,196,31c5.37,6.2,8.09,12.8,8.09,19.61S201.36,64,196,70.24c-5.14,5.94-12.5,11.28-21.86,15.85a136.88,136.88,0,0,1-32.29,10.64A196,196,0,0,1,102.35,100.63Zm0-98.84C46.9,1.79,1.79,23.7,1.79,50.62S46.9,99.46,102.35,99.46,202.92,77.55,202.92,50.62,157.81,1.79,102.35,1.79Z"></path><path class="cls-3" d="M168.73,43.4c-7.29,4.23-9.09,5.15-9.11,11.35C164.54,54.71,168.26,51.65,168.73,43.4Z"></path><path class="cls-3" d="M157,56.07c1.74-2.58,2.4-6.4,1.47-11.82-7.14,6.7-9.15,8.41-7.81,15A10,10,0,0,1,157,56.07Z"></path><path class="cls-3" d="M149.21,63.4a31.4,31.4,0,0,1-9.05,1.75c.11.32.23.65.34,1a31.91,31.91,0,0,0,9-1.82c5.87,2.51,12,.79,17.37-8.68C155.75,56.39,152.83,56.45,149.21,63.4Z"></path><path class="cls-4" d="M143.15,43.73c-2.21-2.22-5.29-3.53-9.21-3.95A10.89,10.89,0,0,0,139.68,37,6.68,6.68,0,0,0,141.75,32a7.54,7.54,0,0,0-3.25-6.66c-2.17-1.5-5.41-2.24-9.76-2.24H113.61v.26l0,.48,0,.48,0,.49-.06.49-.06.49-.07.49-.08.45h2.32v14.6l.44-.23.44-.21.43-.22.43-.2.41-.19.41-.19.39-.18.39-.17.38-.17.37-.16.36-.14.35-.15.34-.13.34-.13.33-.11.31-.12.31-.1.31-.09.29-.09.54-.15.47.08.23,0,.23.06.23.07.24.07.24.09.24.09.24.1.25.11.26.11.25.13.26.13.27.14.27.15.27.16.28.17.29.17.29.19.29.19.3.2.31.2.31.22.31.22.32.23.33.25.33.24.34.26.34.27.19.15a8.34,8.34,0,0,1,3.79,2.16c1.74,1.76,2.61,4.25,2.61,7.5s-.88,5.85-2.64,7.52-4.38,2.51-7.89,2.51h-3.1V49.34l-.06,0-.27.1-.3.11-.32.11-.35.12-.37.13-.4.14-.42.15-.45.16-.48.17-.5.17-.52.19-.55.19-.58.2-.61.21-.62.22-.65.22-.39.14-.4.15-.28.11V62.72h-3.63v3.63H131c4.6,0,8.33-1.29,11.16-3.86a13,13,0,0,0,4.26-10.1A11.73,11.73,0,0,0,143.15,43.73Zm-11.26-6.91a7.67,7.67,0,0,1-5,1.44h-2.79V27.14h2.26a8.93,8.93,0,0,1,5.45,1.41,4.9,4.9,0,0,1,1.86,4.14A5.07,5.07,0,0,1,131.89,36.82Z"></path><path class="cls-4" d="M93,63.94l-.34,0-.33,0L92,63.81l-.34-.06-.33-.07L91,63.6l-.34-.1-.33-.1L90,63.28l-.34-.12L89.31,63,89,62.88l-.33-.16-.33-.16L88,62.38l-.33-.18-.32-.2L87,61.8l-.33-.22-.32-.22L86,61.12l-.32-.24-.32-.25-.32-.26-.33-.28-.32-.28-.32-.29-.32-.3-.32-.31L82.3,57.76l1.3-1.37.47-.5.46-.49.46-.5.46-.49.44-.49.44-.49.44-.48.17-.19L81.18,36.31h0l-.19,0-.19,0-.18,0-.19-.05-.19-.06L80,36l-.19-.07-.19-.07-.18-.07-.18-.07-.18-.08-.17-.08-.17-.09-.17-.08-.16-.09-.16-.09-.16-.09L78,35l-.15-.1-.15-.1-.15-.11-.13-.1-.14-.11-.13-.12L77,34.26l-.13-.11L76.73,34l-.12-.12-.11-.13-.11-.13-.1-.14-.1-.13-.1-.14L76,33.08l-.09-.14-.08-.15-.08-.15-.07-.15-.07-.16-.06-.15L75.49,32l-.15-.45-.13-.46-.12-.45L75,30.2l-.08-.46-.08-.47-.06-.46,0-.47,0-.47V26.45l0-.48,0-.48.06-.48.07-.48.09-.48.11-.49.12-.48.13-.49,0-.07H68.08L54,62.1H51.1v3.63H62.19V62.1H58.45l3-8.49H78.24l2.91,8.49h-4v3.63H93.07V63.94ZM62.94,49.43l7.12-19.78,6.72,19.78Z"></path><path class="cls-5" d="M131.75,44.66l-.57,2a19.6,19.6,0,0,0-6.79,1.19q2.49-.75-8.18,2.95Q110,53,93.69,62.74c-3.19,0-6.41-1.69-9.68-5A129,129,0,0,0,96.63,42.56q11.45-16.46,7.77-27-2-5.67-7.26-3.83a18.16,18.16,0,0,0-9.62,7.78q-3.58,5.7-1.69,11.17a29.21,29.21,0,0,1,1.65,2.92,7.4,7.4,0,0,1-2.42,1.26,7.08,7.08,0,0,1-5.14-.17,5.29,5.29,0,0,1-3.27-3Q74.36,25,79.1,17.33A23.56,23.56,0,0,1,91.58,7a16.09,16.09,0,0,1,11.54,0,13.37,13.37,0,0,1,8.17,8.59A23.14,23.14,0,0,1,111.21,30a51.92,51.92,0,0,1-5.85,12.72l-5.52,8.48q1.17-.3,10.17-5.44t13.18-6.26Q126,39.89,131.75,44.66Z"></path><rect class="cls-6" x="38.86" y="70.59" width="127" height="0.82"></rect><path class="cls-7" d="M38.86,75.56V83h1.36V75.56ZM43,83V80.36c0-1.23,0-2.22-.07-3.18h0a26.13,26.13,0,0,0,1.33,2.57l2,3.29H47.7V75.56H46.43v2.61a30.32,30.32,0,0,0,.13,3.1h0a21.15,21.15,0,0,0-1.27-2.51l-1.93-3.2H41.77V83Zm6.24,0a16.26,16.26,0,0,0,1.84.1,5,5,0,0,0,3.38-1,3.86,3.86,0,0,0,1.16-3,3.33,3.33,0,0,0-1.17-2.75,4.5,4.5,0,0,0-3-.86,15.18,15.18,0,0,0-2.17.15V83Zm1.36-6.36a4.05,4.05,0,0,1,.93-.08,2.37,2.37,0,0,1,2.65,2.59A2.56,2.56,0,0,1,51.39,82a5.71,5.71,0,0,1-.76,0V76.65Zm6.21-1.09V83H58.2V75.56Zm6.78,5.35L64.29,83h1.48l-2.43-7.47H61.6L59.21,83h1.4l.65-2.12Zm-2.14-1L62.05,78c.13-.44.25-1,.36-1.39h0c.11.43.23.94.38,1.39l.58,1.84ZM68.06,83V80.36c0-1.23,0-2.22-.08-3.18h0a26,26,0,0,0,1.32,2.57l2,3.29h1.42V75.56H71.46v2.61a30.44,30.44,0,0,0,.12,3.1h0a22.77,22.77,0,0,0-1.27-2.51l-1.93-3.2H66.8V83ZM80.6,83l2.59-7.47H81.73L80.65,79c-.29.91-.57,1.82-.77,2.71h0c-.19-.91-.44-1.78-.73-2.72l-1-3.4H76.63L79,83Zm7.57-4.42H85.36V76.68h3V75.56H84V83H88.5V81.91H85.36V79.72h2.81V78.61Zm7.51.3H93.05V80h1.31v1.87a2.73,2.73,0,0,1-1,.15,2.47,2.47,0,0,1-2.59-2.7,2.51,2.51,0,0,1,2.72-2.69,3.81,3.81,0,0,1,1.69.33l.3-1.11a5.05,5.05,0,0,0-2-.35c-2.47,0-4.15,1.51-4.16,3.88a3.77,3.77,0,0,0,1,2.75,4.09,4.09,0,0,0,2.94,1,7.25,7.25,0,0,0,2.39-.43V78.91Zm2,4.24a.82.82,0,0,0,.85-.87.81.81,0,0,0-.84-.88.88.88,0,0,0,0,1.75Zm5.44-.12h1.35V80h.69c.78,0,1.12.33,1.34,1.31A9.53,9.53,0,0,0,107,83h1.39a19.55,19.55,0,0,1-.58-2.08,1.86,1.86,0,0,0-1-1.44v0a2,2,0,0,0,1.36-1.86,1.92,1.92,0,0,0-.64-1.51,3.5,3.5,0,0,0-2.31-.59,11.8,11.8,0,0,0-2.06.16V83Zm1.35-6.43a4.43,4.43,0,0,1,.85-.06c.88,0,1.45.38,1.45,1.19S106.21,79,105.29,79h-.81V76.6Zm9.13,2H110.8V76.68h3V75.56h-4.34V83h4.5V81.91H110.8V79.72h2.81V78.61Zm1.2,4.06a4.24,4.24,0,0,0,2,.48c1.91,0,2.82-1,2.82-2.25s-.62-1.73-1.92-2.21c-1-.39-1.43-.66-1.43-1.23s.37-.9,1.23-.9a3.34,3.34,0,0,1,1.5.35l.32-1.08a3.72,3.72,0,0,0-1.78-.39c-1.63,0-2.65.92-2.65,2.15,0,1.07.79,1.73,2,2.17.94.34,1.32.68,1.32,1.24s-.49,1-1.36,1a3.68,3.68,0,0,1-1.8-.48l-.31,1.13Zm7.51.36h1.36V76.7h2.15V75.56h-5.64V76.7h2.13V83Zm7.43-2.12h-2.36L126.75,83h-1.41l2.4-7.47h1.74L131.9,83h-1.47l-.68-2.12Zm-2.14-1h1.92L128.94,78c-.14-.45-.26-1-.37-1.39h0c-.11.43-.23.95-.35,1.39l-.58,1.84Zm5-4.32v4.28c0,2.35,1.12,3.31,2.84,3.31s3-1,3-3.32V75.56H137v4.36c0,1.46-.59,2.13-1.57,2.13s-1.53-.67-1.53-2.13V75.56ZM140,83h1.35V80H142c.78,0,1.12.33,1.35,1.31a9,9,0,0,0,.49,1.76h1.4a21.52,21.52,0,0,1-.59-2.08,1.86,1.86,0,0,0-1-1.44v0A2,2,0,0,0,145,77.61a1.92,1.92,0,0,0-.64-1.51,3.48,3.48,0,0,0-2.3-.59,11.72,11.72,0,0,0-2.06.16V83Zm1.35-6.43a4.3,4.3,0,0,1,.84-.06c.89,0,1.45.38,1.45,1.19S143.05,79,142.13,79h-.81V76.6Zm8.88,4.31.68,2.12h1.47l-2.42-7.47h-1.74L145.79,83h1.41l.64-2.12Zm-2.14-1,.58-1.84c.12-.44.24-1,.35-1.39h0c.11.43.23.94.37,1.39l.59,1.84ZM154.64,83V80.36c0-1.23,0-2.22-.07-3.18h0a26.13,26.13,0,0,0,1.33,2.57L157.89,83h1.42V75.56h-1.26v2.61a30.44,30.44,0,0,0,.12,3.1h0a22.9,22.9,0,0,0-1.28-2.51l-1.93-3.2h-1.56V83Zm7.67,0h1.36V76.7h2.15V75.56h-5.64V76.7h2.13Z"></path></svg> 